<mxfile host="app.diagrams.net" modified="2021-03-05T23:32:49.066Z" agent="5.0 (Windows)" etag="da4r5f2710RnkjJ1UIbI" version="14.4.3" type="github">
  <diagram id="M_Iu2kmPxqi1LgFqcqz7" name="Page-1">
    <mxGraphModel dx="848" dy="652" grid="1" gridSize="10" guides="1" tooltips="1" connect="1" arrows="1" fold="1" page="1" pageScale="1" pageWidth="827" pageHeight="1169" math="0" shadow="0">
      <root>
        <mxCell id="0" />
        <mxCell id="1" parent="0" />
        <mxCell id="LSh2mdG8KhutbdTfYN_B-1" value="Música" style="rounded=0;whiteSpace=wrap;html=1;" vertex="1" parent="1">
          <mxGeometry x="300" y="500" width="120" height="60" as="geometry" />
        </mxCell>
        <mxCell id="LSh2mdG8KhutbdTfYN_B-2" value="contrato" style="rhombus;whiteSpace=wrap;html=1;" vertex="1" parent="1">
          <mxGeometry x="314" y="180" width="80" height="80" as="geometry" />
        </mxCell>
        <mxCell id="LSh2mdG8KhutbdTfYN_B-3" value="álbum" style="rounded=0;whiteSpace=wrap;html=1;" vertex="1" parent="1">
          <mxGeometry x="300" y="740" width="120" height="60" as="geometry" />
        </mxCell>
        <mxCell id="LSh2mdG8KhutbdTfYN_B-4" value="Artista" style="rounded=0;whiteSpace=wrap;html=1;" vertex="1" parent="1">
          <mxGeometry x="300" y="310" width="120" height="60" as="geometry" />
        </mxCell>
        <mxCell id="LSh2mdG8KhutbdTfYN_B-5" value="Gravadora" style="rounded=0;whiteSpace=wrap;html=1;" vertex="1" parent="1">
          <mxGeometry x="294" y="90" width="120" height="60" as="geometry" />
        </mxCell>
        <mxCell id="LSh2mdG8KhutbdTfYN_B-7" value="compõe" style="rhombus;whiteSpace=wrap;html=1;" vertex="1" parent="1">
          <mxGeometry x="320" y="390" width="80" height="80" as="geometry" />
        </mxCell>
        <mxCell id="LSh2mdG8KhutbdTfYN_B-8" value="integram" style="rhombus;whiteSpace=wrap;html=1;" vertex="1" parent="1">
          <mxGeometry x="320" y="600" width="80" height="80" as="geometry" />
        </mxCell>
        <mxCell id="LSh2mdG8KhutbdTfYN_B-11" value="" style="endArrow=none;html=1;entryX=0.5;entryY=1;entryDx=0;entryDy=0;exitX=0.5;exitY=0;exitDx=0;exitDy=0;" edge="1" parent="1" source="LSh2mdG8KhutbdTfYN_B-2" target="LSh2mdG8KhutbdTfYN_B-5">
          <mxGeometry width="50" height="50" relative="1" as="geometry">
            <mxPoint x="140" y="420" as="sourcePoint" />
            <mxPoint x="190" y="370" as="targetPoint" />
          </mxGeometry>
        </mxCell>
        <mxCell id="LSh2mdG8KhutbdTfYN_B-13" value="" style="endArrow=none;html=1;entryX=0.5;entryY=1;entryDx=0;entryDy=0;exitX=0.5;exitY=0;exitDx=0;exitDy=0;" edge="1" parent="1" source="LSh2mdG8KhutbdTfYN_B-4" target="LSh2mdG8KhutbdTfYN_B-2">
          <mxGeometry width="50" height="50" relative="1" as="geometry">
            <mxPoint x="180" y="420" as="sourcePoint" />
            <mxPoint x="230" y="370" as="targetPoint" />
          </mxGeometry>
        </mxCell>
        <mxCell id="LSh2mdG8KhutbdTfYN_B-14" value="" style="endArrow=none;html=1;entryX=0.5;entryY=1;entryDx=0;entryDy=0;exitX=0.5;exitY=0;exitDx=0;exitDy=0;" edge="1" parent="1" source="LSh2mdG8KhutbdTfYN_B-7" target="LSh2mdG8KhutbdTfYN_B-4">
          <mxGeometry width="50" height="50" relative="1" as="geometry">
            <mxPoint x="180" y="420" as="sourcePoint" />
            <mxPoint x="230" y="370" as="targetPoint" />
          </mxGeometry>
        </mxCell>
        <mxCell id="LSh2mdG8KhutbdTfYN_B-15" value="" style="endArrow=none;html=1;entryX=0.5;entryY=1;entryDx=0;entryDy=0;exitX=0.5;exitY=0;exitDx=0;exitDy=0;" edge="1" parent="1" source="LSh2mdG8KhutbdTfYN_B-1" target="LSh2mdG8KhutbdTfYN_B-7">
          <mxGeometry width="50" height="50" relative="1" as="geometry">
            <mxPoint x="190" y="430" as="sourcePoint" />
            <mxPoint x="240" y="380" as="targetPoint" />
          </mxGeometry>
        </mxCell>
        <mxCell id="LSh2mdG8KhutbdTfYN_B-16" value="" style="endArrow=none;html=1;entryX=0.5;entryY=1;entryDx=0;entryDy=0;exitX=0.5;exitY=0;exitDx=0;exitDy=0;" edge="1" parent="1" source="LSh2mdG8KhutbdTfYN_B-8" target="LSh2mdG8KhutbdTfYN_B-1">
          <mxGeometry width="50" height="50" relative="1" as="geometry">
            <mxPoint x="200" y="440" as="sourcePoint" />
            <mxPoint x="250" y="390" as="targetPoint" />
          </mxGeometry>
        </mxCell>
        <mxCell id="LSh2mdG8KhutbdTfYN_B-17" value="" style="endArrow=none;html=1;entryX=0.5;entryY=1;entryDx=0;entryDy=0;exitX=0.5;exitY=0;exitDx=0;exitDy=0;" edge="1" parent="1" source="LSh2mdG8KhutbdTfYN_B-3" target="LSh2mdG8KhutbdTfYN_B-8">
          <mxGeometry width="50" height="50" relative="1" as="geometry">
            <mxPoint x="210" y="450" as="sourcePoint" />
            <mxPoint x="260" y="400" as="targetPoint" />
          </mxGeometry>
        </mxCell>
        <mxCell id="LSh2mdG8KhutbdTfYN_B-18" value="(1,1)" style="text;html=1;strokeColor=none;fillColor=none;align=center;verticalAlign=middle;whiteSpace=wrap;rounded=0;" vertex="1" parent="1">
          <mxGeometry x="374" y="150" width="40" height="20" as="geometry" />
        </mxCell>
        <mxCell id="LSh2mdG8KhutbdTfYN_B-19" value="(0,n)" style="text;html=1;strokeColor=none;fillColor=none;align=center;verticalAlign=middle;whiteSpace=wrap;rounded=0;" vertex="1" parent="1">
          <mxGeometry x="380" y="280" width="40" height="20" as="geometry" />
        </mxCell>
        <mxCell id="LSh2mdG8KhutbdTfYN_B-20" value="(0,n)" style="text;html=1;strokeColor=none;fillColor=none;align=center;verticalAlign=middle;whiteSpace=wrap;rounded=0;" vertex="1" parent="1">
          <mxGeometry x="394" y="480" width="40" height="20" as="geometry" />
        </mxCell>
        <mxCell id="LSh2mdG8KhutbdTfYN_B-21" value="(0,1)" style="text;html=1;strokeColor=none;fillColor=none;align=center;verticalAlign=middle;whiteSpace=wrap;rounded=0;" vertex="1" parent="1">
          <mxGeometry x="400" y="710" width="40" height="20" as="geometry" />
        </mxCell>
        <mxCell id="LSh2mdG8KhutbdTfYN_B-25" value="" style="ellipse;whiteSpace=wrap;html=1;aspect=fixed;" vertex="1" parent="1">
          <mxGeometry x="220" y="770" width="20" height="20" as="geometry" />
        </mxCell>
        <mxCell id="LSh2mdG8KhutbdTfYN_B-26" value="" style="ellipse;whiteSpace=wrap;html=1;aspect=fixed;" vertex="1" parent="1">
          <mxGeometry x="230" y="520" width="20" height="20" as="geometry" />
        </mxCell>
        <mxCell id="LSh2mdG8KhutbdTfYN_B-27" value="" style="ellipse;whiteSpace=wrap;html=1;aspect=fixed;" vertex="1" parent="1">
          <mxGeometry x="210" y="340" width="20" height="20" as="geometry" />
        </mxCell>
        <mxCell id="LSh2mdG8KhutbdTfYN_B-28" value="" style="ellipse;whiteSpace=wrap;html=1;aspect=fixed;" vertex="1" parent="1">
          <mxGeometry x="220" y="110" width="20" height="20" as="geometry" />
        </mxCell>
        <mxCell id="LSh2mdG8KhutbdTfYN_B-30" value="" style="endArrow=none;html=1;exitX=1;exitY=0.5;exitDx=0;exitDy=0;entryX=0;entryY=0.5;entryDx=0;entryDy=0;" edge="1" parent="1" source="LSh2mdG8KhutbdTfYN_B-28" target="LSh2mdG8KhutbdTfYN_B-5">
          <mxGeometry width="50" height="50" relative="1" as="geometry">
            <mxPoint x="210" y="340" as="sourcePoint" />
            <mxPoint x="260" y="290" as="targetPoint" />
          </mxGeometry>
        </mxCell>
        <mxCell id="LSh2mdG8KhutbdTfYN_B-31" value="" style="endArrow=none;html=1;exitX=1;exitY=0.5;exitDx=0;exitDy=0;entryX=0;entryY=0.656;entryDx=0;entryDy=0;entryPerimeter=0;" edge="1" parent="1" source="LSh2mdG8KhutbdTfYN_B-27" target="LSh2mdG8KhutbdTfYN_B-4">
          <mxGeometry width="50" height="50" relative="1" as="geometry">
            <mxPoint x="240" y="349.33000000000004" as="sourcePoint" />
            <mxPoint x="294" y="349.33000000000004" as="targetPoint" />
          </mxGeometry>
        </mxCell>
        <mxCell id="LSh2mdG8KhutbdTfYN_B-32" value="" style="endArrow=none;html=1;entryX=0;entryY=0.656;entryDx=0;entryDy=0;entryPerimeter=0;exitX=1;exitY=0.5;exitDx=0;exitDy=0;" edge="1" parent="1" source="LSh2mdG8KhutbdTfYN_B-26">
          <mxGeometry width="50" height="50" relative="1" as="geometry">
            <mxPoint x="260" y="529" as="sourcePoint" />
            <mxPoint x="310" y="529.33" as="targetPoint" />
          </mxGeometry>
        </mxCell>
        <mxCell id="LSh2mdG8KhutbdTfYN_B-33" value="" style="endArrow=none;html=1;exitX=1;exitY=0.5;exitDx=0;exitDy=0;entryX=0;entryY=0.5;entryDx=0;entryDy=0;" edge="1" parent="1" target="LSh2mdG8KhutbdTfYN_B-3">
          <mxGeometry width="50" height="50" relative="1" as="geometry">
            <mxPoint x="240" y="779.97" as="sourcePoint" />
            <mxPoint x="310" y="779.33" as="targetPoint" />
          </mxGeometry>
        </mxCell>
        <mxCell id="LSh2mdG8KhutbdTfYN_B-34" value="Preço" style="text;html=1;strokeColor=none;fillColor=none;align=center;verticalAlign=middle;whiteSpace=wrap;rounded=0;" vertex="1" parent="1">
          <mxGeometry x="160" y="110" width="40" height="20" as="geometry" />
        </mxCell>
        <mxCell id="LSh2mdG8KhutbdTfYN_B-35" value="Nome" style="text;html=1;strokeColor=none;fillColor=none;align=center;verticalAlign=middle;whiteSpace=wrap;rounded=0;" vertex="1" parent="1">
          <mxGeometry x="150" y="340" width="40" height="20" as="geometry" />
        </mxCell>
        <mxCell id="LSh2mdG8KhutbdTfYN_B-36" value="Estilo" style="text;html=1;strokeColor=none;fillColor=none;align=center;verticalAlign=middle;whiteSpace=wrap;rounded=0;" vertex="1" parent="1">
          <mxGeometry x="160" y="520" width="40" height="20" as="geometry" />
        </mxCell>
        <mxCell id="LSh2mdG8KhutbdTfYN_B-37" value="Lançamento" style="text;html=1;strokeColor=none;fillColor=none;align=center;verticalAlign=middle;whiteSpace=wrap;rounded=0;" vertex="1" parent="1">
          <mxGeometry x="150" y="770" width="40" height="20" as="geometry" />
        </mxCell>
      </root>
    </mxGraphModel>
  </diagram>
</mxfile>
